<?xml version="1.0" encoding="UTF-8"?>
<svg version="1.1" xmlns="http://www.w3.org/2000/svg" width="512" height="512">
<path d="M0 0 C0.80308594 0.350625 1.60617188 0.70125 2.43359375 1.0625 C14.87325357 7.27155031 24.75613207 19.61748359 34.45556641 29.34204102 C35.99375267 30.88050981 37.53216008 32.41875753 39.07077026 33.95680237 C43.22104747 38.10679417 47.36824716 42.25984886 51.5148778 46.41348386 C55.85857115 50.76345373 60.20512085 55.11056764 64.55136108 59.45799255 C72.76954198 67.67927413 80.98517172 75.90310017 89.19987524 84.12785619 C98.55707371 93.49625512 107.91713207 102.8617945 117.27742505 112.22710145 C136.5214546 131.48156677 155.76191163 150.73959868 175 170 C177.78255635 168.72899374 179.82483345 167.42316775 181.97865486 165.25626755 C182.54127875 164.69515896 183.10390265 164.13405036 183.68357575 163.55593848 C184.29154586 162.93941421 184.89951597 162.32288993 185.52590942 161.68768311 C186.1797234 161.03275572 186.83353737 160.37782834 187.50716388 159.70305467 C189.70111572 157.50302145 191.88783138 155.29593273 194.07470703 153.08886719 C195.64479949 151.51166341 197.21536262 149.93492805 198.78636169 148.35862732 C202.17160046 144.96027618 205.55380604 141.55894432 208.93381119 138.15538788 C214.28214952 132.77048564 219.63915582 127.39426419 224.99777222 122.01959229 C232.51399478 114.47953738 240.02814643 106.93743022 247.5390625 99.39208984 C248.01566637 98.91330573 248.49227024 98.43452162 248.98331665 97.9412289 C255.73795035 91.15541371 262.48957205 84.36660961 269.23996936 77.57658044 C269.95214644 76.86022341 269.95214644 76.86022341 270.67871094 76.12939453 C271.1529123 75.65240611 271.62711366 75.17541769 272.11568476 74.68397507 C280.03897643 66.71452069 287.97017242 58.75298412 295.90749061 50.79749608 C301.23180881 45.4601174 306.54699704 40.11386224 311.85554814 34.7608037 C315.16779076 31.42502933 318.48843517 28.09771764 321.81146431 24.77269173 C323.34596784 23.23390837 324.87704561 21.69169962 326.40433693 20.14575768 C340.68552366 5.69703165 354.01786838 -4.16181708 375 -4.3125 C391.03969673 -4.32488587 404.36286661 0.51018819 416.25 11.5625 C428.8588805 24.92263425 432.83341257 39.85452918 432.3515625 57.8828125 C432.02107613 64.35226143 430.59595986 70.06515756 428 76 C427.649375 76.80308594 427.29875 77.60617188 426.9375 78.43359375 C420.72844969 90.87325357 408.38251641 100.75613207 398.65795898 110.45556641 C397.11949019 111.99375267 395.58124247 113.53216008 394.04319763 115.07077026 C389.89320583 119.22104747 385.74015114 123.36824716 381.58651614 127.5148778 C377.23654627 131.85857115 372.88943236 136.20512085 368.54200745 140.55136108 C360.32072587 148.76954198 352.09689983 156.98517172 343.87214381 165.19987524 C334.50374488 174.55707371 325.1382055 183.91713207 315.77289855 193.27742505 C296.51843323 212.5214546 277.26040132 231.76191163 258 251 C259.27100626 253.78255635 260.57683225 255.82483345 262.74373245 257.97865486 C263.30484104 258.54127875 263.86594964 259.10390265 264.44406152 259.68357575 C265.06058579 260.29154586 265.67711007 260.89951597 266.31231689 261.52590942 C266.96724428 262.1797234 267.62217166 262.83353737 268.29694533 263.50716388 C270.49697855 265.70111572 272.70406727 267.88783138 274.91113281 270.07470703 C276.48833659 271.64479949 278.06507195 273.21536262 279.64137268 274.78636169 C283.03972382 278.17160046 286.44105568 281.55380604 289.84461212 284.93381119 C295.22951436 290.28214952 300.60573581 295.63915582 305.98040771 300.99777222 C313.52046262 308.51399478 321.06256978 316.02814643 328.60791016 323.5390625 C329.32608633 324.2539683 329.32608633 324.2539683 330.0587711 324.98331665 C336.84458629 331.73795035 343.63339039 338.48957205 350.42341956 345.23996936 C351.13977659 345.95214644 351.13977659 345.95214644 351.87060547 346.67871094 C352.5860881 347.39001298 352.5860881 347.39001298 353.31602493 348.11568476 C361.28547931 356.03897643 369.24701588 363.97017242 377.20250392 371.90749061 C382.5398826 377.23180881 387.88613776 382.54699704 393.2391963 387.85554814 C396.57497067 391.16779076 399.90228236 394.48843517 403.22730827 397.81146431 C404.76609163 399.34596784 406.30830038 400.87704561 407.85424232 402.40433693 C422.30296835 416.68552366 432.16181708 430.01786838 432.3125 451 C432.32488587 467.03969673 427.48981181 480.36286661 416.4375 492.25 C403.07736575 504.8588805 388.14547082 508.83341257 370.1171875 508.3515625 C363.64773857 508.02107613 357.93484244 506.59595986 352 504 C351.19691406 503.649375 350.39382813 503.29875 349.56640625 502.9375 C337.12674643 496.72844969 327.24386793 484.38251641 317.54443359 474.65795898 C316.00624733 473.11949019 314.46783992 471.58124247 312.92922974 470.04319763 C308.77895253 465.89320583 304.63175284 461.74015114 300.4851222 457.58651614 C296.14142885 453.23654627 291.79487915 448.88943236 287.44863892 444.54200745 C279.23045802 436.32072587 271.01482828 428.09689983 262.80012476 419.87214381 C253.44292629 410.50374488 244.08286793 401.1382055 234.72257495 391.77289855 C215.4785454 372.51843323 196.23808837 353.26040132 177 334 C174.21744365 335.27100626 172.17516655 336.57683225 170.02134514 338.74373245 C169.45872125 339.30484104 168.89609735 339.86594964 168.31642425 340.44406152 C167.40446908 341.36884793 167.40446908 341.36884793 166.47409058 342.31231689 C165.8202766 342.96724428 165.16646263 343.62217166 164.49283612 344.29694533 C162.29888428 346.49697855 160.11216862 348.70406727 157.92529297 350.91113281 C156.35520051 352.48833659 154.78463738 354.06507195 153.21363831 355.64137268 C149.82839954 359.03972382 146.44619396 362.44105568 143.06618881 365.84461212 C137.71785048 371.22951436 132.36084418 376.60573581 127.00222778 381.98040771 C119.48600522 389.52046262 111.97185357 397.06256978 104.4609375 404.60791016 C103.98433363 405.08669427 103.50772976 405.56547838 103.01668335 406.0587711 C96.26204965 412.84458629 89.51042795 419.63339039 82.76003064 426.42341956 C82.28524592 426.90099091 81.8104612 427.37856226 81.32128906 427.87060547 C80.60998702 428.5860881 80.60998702 428.5860881 79.88431524 429.31602493 C71.96102357 437.28547931 64.02982758 445.24701588 56.09250939 453.20250392 C50.76819119 458.5398826 45.45300296 463.88613776 40.14445186 469.2391963 C36.83220924 472.57497067 33.51156483 475.90228236 30.18853569 479.22730827 C28.65403216 480.76609163 27.12295439 482.30830038 25.59566307 483.85424232 C11.31447634 498.30296835 -2.01786838 508.16181708 -23 508.3125 C-39.03969673 508.32488587 -52.36286661 503.48981181 -64.25 492.4375 C-77.13860923 478.78097042 -80.8203907 463.65808833 -80.3515625 445.2734375 C-80.04360128 439.00565126 -78.73390755 433.65667055 -76 428 C-75.649375 427.22011719 -75.29875 426.44023437 -74.9375 425.63671875 C-68.72647575 413.14997207 -56.41224347 403.2735182 -46.65795898 393.54443359 C-45.11949019 392.00624733 -43.58124247 390.46783992 -42.04319763 388.92922974 C-37.89320583 384.77895253 -33.74015114 380.63175284 -29.58651614 376.4851222 C-25.23654627 372.14142885 -20.88943236 367.79487915 -16.54200745 363.44863892 C-8.32072587 355.23045802 -0.09689983 347.01482828 8.12785619 338.80012476 C17.49625512 329.44292629 26.8617945 320.08286793 36.22710145 310.72257495 C55.48156677 291.4785454 74.73959868 272.23808837 94 253 C92.72899374 250.21744365 91.42316775 248.17516655 89.25626755 246.02134514 C88.69515896 245.45872125 88.13405036 244.89609735 87.55593848 244.31642425 C86.63115207 243.40446908 86.63115207 243.40446908 85.68768311 242.47409058 C85.03275572 241.8202766 84.37782834 241.16646263 83.70305467 240.49283612 C81.50302145 238.29888428 79.29593273 236.11216862 77.08886719 233.92529297 C75.51166341 232.35520051 73.93492805 230.78463738 72.35862732 229.21363831 C68.96027618 225.82839954 65.55894432 222.44619396 62.15538788 219.06618881 C56.77048564 213.71785048 51.39426419 208.36084418 46.01959229 203.00222778 C38.47953738 195.48600522 30.93743022 187.97185357 23.39208984 180.4609375 C22.67391367 179.7460317 22.67391367 179.7460317 21.9412289 179.01668335 C15.15541371 172.26204965 8.36660961 165.51042795 1.57658044 158.76003064 C1.09900909 158.28524592 0.62143774 157.8104612 0.12939453 157.32128906 C-0.34759389 156.8470877 -0.82458231 156.37288634 -1.31602493 155.88431524 C-9.28547931 147.96102357 -17.24701588 140.02982758 -25.20250392 132.09250939 C-30.5398826 126.76819119 -35.88613776 121.45300296 -41.2391963 116.14445186 C-44.57497067 112.83220924 -47.90228236 109.51156483 -51.22730827 106.18853569 C-52.76609163 104.65403216 -54.30830038 103.12295439 -55.85424232 101.59566307 C-70.30296835 87.31447634 -80.16181708 73.98213162 -80.3125 53 C-80.32488587 36.96030327 -75.48981181 23.63713339 -64.4375 11.75 C-47.29363086 -4.42985218 -21.8682765 -9.5654044 0 0 Z " fill="#E76D53" transform="translate(80,4)"/>
</svg>
